PathFileType	4	(X/Y/Z)	Walk1.trc
DataRate	CameraRate	NumFrames	NumMarkers	Units	OrigDataRate	OrigDataStartFrame	OrigNumFrames
200.000000	200.000000	4	59	mm	200.000000	323	485
Frame#	Times		LFHD		RFHD		LBHD		RBHD		C7		T10		CLAV		STRN		RBack		LASI		RASI		LPSI		RPSI		RACR1		RUA1		RElbow		RElbowM		RFA1		RWRR		RWRU		RCAR		LACR1		LUA1		LElbow		LElbowM		LFA1		LWRR		LCAR		RTH1		RTH3		RTH2		RTH4		RLFC		RTB1		RTB3		RTB2		RTB4		RLMAL		RMT1		RMT5		LTH1		LTH3		LTH2		LTH4		LLFC		LTB1		LTB3		LTB2		LTB4		LLMAL		LMMAL		LMT1		LMT5		LToe		RMMAL		LWRU		RToe		LCAL		RCAL
			X1	Y1	Z1	X2	Y2	Z2	X3	Y3	Z3	X4	Y4	Z4	X5	Y5	Z5	X6	Y6	Z6	X7	Y7	Z7	X8	Y8	Z8	X9	Y9	Z9	X10	Y10	Z10	X11	Y11	Z11	X12	Y12	Z12	X13	Y13	Z13	X14	Y14	Z14	X15	Y15	Z15	X16	Y16	Z16	X17	Y17	Z17	X18	Y18	Z18	X19	Y19	Z19	X20	Y20	Z20	X21	Y21	Z21	X22	Y22	Z22	X23	Y23	Z23	X24	Y24	Z24	X25	Y25	Z25	X26	Y26	Z26	X27	Y27	Z27	X28	Y28	Z28	X29	Y29	Z29	X30	Y30	Z30	X31	Y31	Z31	X32	Y32	Z32	X33	Y33	Z33	X34	Y34	Z34	X35	Y35	Z35	X36	Y36	Z36	X37	Y37	Z37	X38	Y38	Z38	X39	Y39	Z39	X40	Y40	Z40	X41	Y41	Z41	X42	Y42	Z42	X43	Y43	Z43	X44	Y44	Z44	X45	Y45	Z45	X46	Y46	Z46	X47	Y47	Z47	X48	Y48	Z48	X49	Y49	Z49	X50	Y50	Z50	X51	Y51	Z51	X52	Y52	Z52	X53	Y53	Z53	X54	Y54	Z54	X55	Y55	Z55	X56	Y56	Z56	X57	Y57	Z57	X58	Y58	Z58	X59	Y59	Z59

323	1.615	423.03	1597.1	-60.796	443.35	1597.3	32.083	272.54	1538.4	-59.723	296.54	1545.6	80.125	251.78	1416.3	8.3265	184.56	1147.6	2.0083	390.36	1339.7	-4.0047	452.38	1237.3	2.2962	203.89	1317.4	112.56	439.6	952.34	-137.24	455.54	984.42	152.82	196.93	956.75	-27.627	200.11	969.21	61.55	329.38	1373.2	153.45	320.95	1193.5	251.79	272.7	1074	284.06	260.85	1038.7	191.34	290.38	928.18	306.05	378.44	835.7	273.05	322.82	823.57	317.32	391.79	787.12	326.03	323.22	1373.7	-157.34	323.07	1190.9	-247.96	297.22	1064	-273.75	254.84	1040	-204.96	315.55	925.83	-282.97	388.19	826.38	-225.19	409.86	777.37	-261.09	385.79	750.4	228.39	392.49	584.35	180.4	444.2	675.32	185.77	387.64	666.37	202.92	396.63	498.2	153.37	429.18	342.49	73.462	404.99	171.16	71.876	400.46	258.65	129.75	417.74	255.94	69.47	357.77	60.537	97.905	470.65	33.566	34.196	442.79	26.528	112.73	353.77	744.32	-202.13	387.28	581.67	-161.58	428.25	679.49	-171.76	369.27	664.23	-176.32	406.06	466.62	-141.31	365.47	324.38	-76.006	219.32	231	-76.272	273.7	301.93	-127.28	291.08	277.36	-74.159	104.94	197.31	-95.753	125.77	181.6	-14.064	143.57	75.942	-36.357	112.3	95.05	-103.83	172.19	21.139	-75.366	368.29	68.631	14.75	347.43	812.37	-285.23	540.11	28.374	61.123	51.231	228.66	-50.034	293.08	27.396	64.582
324	1.62	428.93	1597.6	-60.92	449.03	1597.7	31.931	278.52	1539	-59.954	302.19	1546	80.035	257.54	1416.9	8.0887	190.49	1148.2	2.5324	395.98	1340.2	-4.1332	457.89	1237.7	1.78	209.4	1318.1	112.52	444.95	953.19	-137.28	460.62	984.39	152.78	202.23	957.6	-27.244	205.57	969.94	61.698	335.23	1374	153.3	327.34	1194.4	251.81	279.8	1074.9	284.66	267.87	1039.5	192.1	298.66	929.12	306.95	387.43	837.45	273.65	331.87	824.82	318.58	401.55	789.04	326.86	328.74	1374.1	-157.42	327.76	1191.2	-247.95	301.02	1064.6	-273.65	258.48	1040.8	-204.99	317.87	926.36	-283.4	389.21	825.71	-225.8	410.36	776.37	-261.71	390.29	750.35	228.04	396.18	584.27	180.07	447.92	674.93	185.2	391.41	666.25	202.59	398.36	498	153.03	429.73	342.27	73.404	405.25	171.04	71.829	401.12	258.5	129.66	418.51	255.88	69.32	357.86	60.565	97.808	470.61	33.533	34.222	442.81	26.514	112.75	360.68	744.44	-201.3	396.66	582.81	-161.82	435.15	681.28	-172.67	376.9	665.08	-176.29	417.23	468.18	-141.71	378.14	325.39	-76.017	233.93	229.96	-76.658	286.95	301.89	-127.21	304.89	277.48	-74.203	119.7	194.72	-95.469	141.28	178.93	-14.175	163.17	74.346	-38.071	130.2	93.297	-104.9	193	21.335	-77.965	368.28	68.633	14.701	349.46	813.4	-285.31	540.13	28.35	61.11	64.99	224.31	-49.457	293.06	27.528	64.52
325	1.625	434.84	1598.1	-60.96	454.87	1598	31.769	284.34	1539.5	-60.017	308.23	1546.5	79.915	263.38	1417.4	7.9592	195.99	1148.6	2.8905	401.79	1340.6	-4.3421	463.52	1237.8	1.0615	215.29	1318.9	112.45	450.28	954.01	-137.25	466.05	984.3	152.74	207.57	958.33	-26.843	210.97	970.57	62.113	340.97	1374.6	153.18	333.66	1195.5	252.04	286.93	1075.6	284.81	275.24	1040.2	192.43	306.86	930.27	307.82	396.35	839.11	274.23	341.2	826.07	318.72	411.28	791.08	327.62	334.35	1374.5	-157.49	332.41	1191.6	-248.03	304.97	1065.1	-273.69	262.19	1041.5	-204.87	320.14	926.96	-283.91	390.1	825.13	-226.54	410.55	775.6	-262.4	395.14	750.24	227.58	399.34	584	179.58	451.87	674.62	184.72	395.25	666.21	202.37	400.61	497.8	152.82	430.37	341.99	73.462	405.55	170.92	71.781	401.39	258.28	129.68	419.04	255.68	69.252	357.89	60.614	97.765	470.64	33.393	34.226	442.79	26.531	112.71	366.55	744.62	-201.32	405.67	583.93	-161.95	441.87	683	-173.33	384.93	665.79	-176.15	428.17	469.8	-142.08	390.62	326.31	-76.038	248.11	228.58	-76.778	300.25	301.84	-127.23	318.73	277.52	-74.265	134.89	191.8	-95.294	156.95	176.1	-14.117	182.63	72.819	-39.665	148.66	91.491	-106.11	214.3	21.653	-80.312	368.31	68.572	14.61	350.8	813.69	-285.43	540.15	28.366	61.151	79.144	219.56	-49.039	293.06	27.628	64.488
326	1.63	440.75	1598.3	-60.997	460.73	1598.2	31.812	290.16	1539.9	-60.34	314.14	1546.9	79.764	269.2	1417.8	7.9295	201.28	1149.1	3.119	407.66	1340.9	-4.5677	469.28	1237.9	0.44765	221.06	1319.4	112.71	455.56	954.77	-137.2	471.27	984.2	152.72	213.01	959.09	-26.59	216.54	971.07	62.34	346.93	1375.2	153.06	339.95	1196.3	252.23	294.16	1076.3	285.46	282.69	1040.6	192.96	315.19	931.19	308.49	405.49	840.79	274.71	350.77	827.06	318.8	420.9	793.2	328.24	339.86	1374.8	-157.58	337.01	1191.8	-248.06	308.59	1065.6	-273.78	266.13	1042.2	-204.66	322.41	927.4	-284.29	391.19	824.78	-227.17	410.97	774.73	-263.24	400.17	750.12	227.19	402.69	583.96	179.3	456.49	674.33	184.08	400.67	666.06	202.03	402.33	497.69	152.73	431.12	341.79	73.45	406	170.74	71.58	401.54	258.13	129.74	419.33	255.47	69.308	357.95	60.656	97.664	470.67	33.351	34.195	442.82	26.542	112.67	371.54	745.05	-201.84	414.84	584.9	-162.05	448.21	684.46	-173.57	392.81	666.54	-176.2	438.9	471.55	-142.47	403.32	327.4	-76.177	262.53	227.2	-76.709	313.43	301.43	-127.3	332.59	277.47	-74.322	150.18	188.5	-95.276	172.59	173.14	-14.107	202.09	71.042	-41.307	167.71	89.512	-107.33	236.22	21.942	-82.163	368.39	68.558	14.519	351.65	813.93	-286.57	540.15	28.366	61.184	93.182	214.18	-48.767	293.06	27.648	64.313
